<svg width="33" height="32" viewBox="0 0 33 32" fill="none" xmlns="http://www.w3.org/2000/svg">
<path d="M23.6677 14H9.66772C8.34164 14 7.06988 14.5268 6.13219 15.4645C5.19451 16.4021 4.66772 17.6739 4.66772 19V25C4.66772 26.3261 5.19451 27.5979 6.13219 28.5355C7.06988 29.4732 8.34164 30 9.66772 30H23.6677C24.9938 30 26.2656 29.4732 27.2033 28.5355C28.1409 27.5979 28.6677 26.3261 28.6677 25V19C28.6677 17.6739 28.1409 16.4021 27.2033 15.4645C26.2656 14.5268 24.9938 14 23.6677 14ZM16.6677 26C15.8766 26 15.1032 25.7654 14.4454 25.3259C13.7876 24.8864 13.275 24.2616 12.9722 23.5307C12.6695 22.7998 12.5902 21.9956 12.7446 21.2196C12.8989 20.4437 13.2799 19.731 13.8393 19.1716C14.3987 18.6122 15.1114 18.2312 15.8874 18.0769C16.6633 17.9225 17.4676 18.0017 18.1985 18.3045C18.9294 18.6072 19.5541 19.1199 19.9936 19.7777C20.4331 20.4355 20.6677 21.2089 20.6677 22C20.6677 23.0609 20.2463 24.0783 19.4962 24.8284C18.746 25.5786 17.7286 26 16.6677 26Z" fill="#FD3C4A"/>
<path d="M16.6677 24C17.7723 24 18.6677 23.1046 18.6677 22C18.6677 20.8954 17.7723 20 16.6677 20C15.5632 20 14.6677 20.8954 14.6677 22C14.6677 23.1046 15.5632 24 16.6677 24Z" fill="#FD3C4A"/>
<path d="M17.3778 2.29C17.2848 2.19627 17.1742 2.12188 17.0524 2.07111C16.9305 2.02034 16.7998 1.9942 16.6678 1.9942C16.5358 1.9942 16.4051 2.02034 16.2832 2.07111C16.1614 2.12188 16.0508 2.19627 15.9578 2.29L11.7178 6.54C11.5242 6.72698 11.4128 6.98321 11.4081 7.25232C11.4034 7.52144 11.5058 7.78139 11.6928 7.975C11.8798 8.16861 12.136 8.28001 12.4051 8.2847C12.6742 8.28939 12.9342 8.18698 13.1278 8L15.6678 5.41V11C15.6678 11.2652 15.7732 11.5196 15.9607 11.7071C16.1482 11.8946 16.4026 12 16.6678 12C16.933 12 17.1874 11.8946 17.3749 11.7071C17.5625 11.5196 17.6678 11.2652 17.6678 11V5.41L20.2078 8C20.3941 8.18474 20.6455 8.2889 20.9078 8.29C21.0477 8.29761 21.1877 8.27573 21.3186 8.22577C21.4496 8.17581 21.5685 8.09889 21.6678 8C21.8541 7.81264 21.9586 7.55919 21.9586 7.295C21.9586 7.03081 21.8541 6.77736 21.6678 6.59L17.3778 2.29Z" fill="#FD3C4A"/>
</svg>
